<?xml version="1.0" encoding="utf-8"?>
<!-- Generator: Adobe Illustrator 26.2.1, SVG Export Plug-In . SVG Version: 6.00 Build 0)  -->
<svg version="1.1" id="Layer_1" xmlns="http://www.w3.org/2000/svg" xmlns:xlink="http://www.w3.org/1999/xlink" x="0px" y="0px"
	 viewBox="0 0 96.93 164.72" style="enable-background:new 0 0 96.93 164.72;" xml:space="preserve">
<style type="text/css">
	.st0{fill:#EFA6A7;}
	.st1{fill:#FFFFFF;}
	.st2{fill:#89C17A;}
	.st3{clip-path:url(#SVGID_00000096032020950022912630000005144335161544213910_);fill:#89C17A;}
	.st4{clip-path:url(#SVGID_00000096032020950022912630000005144335161544213910_);}
	.st5{fill:#E1DF84;}
	.st6{opacity:0.5;clip-path:url(#SVGID_00000096032020950022912630000005144335161544213910_);}
	.st7{opacity:0.5;fill:#89C17A;}
	.st8{fill:#F47D4D;}
	.st9{opacity:0.1;fill:#231F20;}
	.st10{fill:#231F20;}
	.st11{fill:#79A769;}
	.st12{fill:#F8C457;}
	.st13{fill:#F3C35C;}
	.st14{clip-path:url(#SVGID_00000170991050494448110850000011946510567087643274_);fill:#F8C457;}
	.st15{clip-path:url(#SVGID_00000170991050494448110850000011946510567087643274_);}
	.st16{fill:url(#SVGID_00000128452452459143203530000011539903132559971230_);}
	.st17{fill:url(#SVGID_00000056416661135251146610000006485145653948723640_);}
	.st18{fill:url(#SVGID_00000025411513920677531600000011355109685540692359_);}
	.st19{fill:#E09D30;}
	.st20{clip-path:url(#SVGID_00000099648780103632064420000002382111994499115397_);}
	.st21{fill:none;stroke:#231F20;stroke-width:0.4131;stroke-miterlimit:10;}
	.st22{clip-path:url(#SVGID_00000165928207609970112030000009032523235904608141_);fill:#EFA6A7;}
	.st23{clip-path:url(#SVGID_00000165928207609970112030000009032523235904608141_);}
	.st24{fill:url(#SVGID_00000030474000686543633460000005763200154762924732_);}
	.st25{fill:url(#SVGID_00000023279209266607010720000013146672010788532408_);}
	.st26{fill:url(#SVGID_00000106113736728617408680000007625112897190614401_);}
	.st27{fill:#79C474;}
	.st28{fill:#E4728D;}
	.st29{fill:#FFCD5B;}
	.st30{fill:#EEA6A6;}
	.st31{fill:#79C374;}
	.st32{fill:#80C06F;}
	.st33{fill:#2B8240;}
	.st34{fill:#935F5B;}
	.st35{fill:#216734;}
	.st36{opacity:0.4;fill:#2B8240;}
	.st37{fill:#705295;}
</style>
<g>
	<path class="st27" d="M87.65,91.66l-5.87-6.71c-8.72-9.97-8.33-24.96,0.91-34.46l7.05-7.25c10.42-10.71,9.39-28.06-2.22-37.47
		L87.4,5.67C76.78-2.94,61.24-1.6,52.24,8.7L14.17,52.27c-8.44,9.66-8.36,24.1,0.19,33.67l35.2,39.4
		c8.42,9.42,22.48,11.23,33.01,4.25l0,0C95.39,121.09,97.78,103.23,87.65,91.66z"/>
	<path class="st8" d="M79.76,122.56l-5.87-6.71c-8.72-9.97-8.33-24.96,0.91-34.46l7.05-7.25c10.42-10.71,9.39-28.06-2.22-37.47
		l-0.11-0.09c-10.62-8.61-26.16-7.28-35.15,3.02L6.28,83.17c-8.44,9.66-8.36,24.1,0.19,33.67l35.2,39.4
		c8.42,9.42,22.48,11.23,33.01,4.25l0,0C87.49,151.99,89.88,134.14,79.76,122.56z"/>
</g>
</svg>
