<?xml version="1.0" encoding="utf-8"?>
<!-- Generator: Adobe Illustrator 26.2.1, SVG Export Plug-In . SVG Version: 6.00 Build 0)  -->
<svg version="1.1" id="Layer_1" xmlns="http://www.w3.org/2000/svg" xmlns:xlink="http://www.w3.org/1999/xlink" x="0px" y="0px"
	 viewBox="0 0 66.62 37" style="enable-background:new 0 0 66.62 37;" xml:space="preserve">
<style type="text/css">
	.st0{fill:#EFA6A7;}
	.st1{fill:#FFFFFF;}
	.st2{fill:#89C17A;}
	.st3{clip-path:url(#SVGID_00000085212644962139072790000008253435757662549670_);fill:#89C17A;}
	.st4{clip-path:url(#SVGID_00000085212644962139072790000008253435757662549670_);}
	.st5{fill:#E1DF84;}
	.st6{opacity:0.5;clip-path:url(#SVGID_00000085212644962139072790000008253435757662549670_);}
	.st7{opacity:0.5;fill:#89C17A;}
	.st8{fill:#F47D4D;}
	.st9{opacity:0.1;fill:#231F20;}
	.st10{fill:#231F20;}
	.st11{fill:#79A769;}
	.st12{fill:#F8C457;}
	.st13{fill:#F3C35C;}
	.st14{clip-path:url(#SVGID_00000079472194955702695620000001404596096082929837_);fill:#F8C457;}
	.st15{clip-path:url(#SVGID_00000079472194955702695620000001404596096082929837_);}
	.st16{fill:url(#SVGID_00000085214556772191692870000002199914784746824850_);}
	.st17{fill:url(#SVGID_00000097492662948438812220000001877520154791523501_);}
	.st18{fill:url(#SVGID_00000151511360661756878870000013871153660574841489_);}
	.st19{fill:#E09D30;}
	.st20{clip-path:url(#SVGID_00000160168039814890836460000000062026861629973156_);}
	.st21{fill:none;stroke:#231F20;stroke-width:0.8541;stroke-miterlimit:10;}
	.st22{clip-path:url(#SVGID_00000054982352848645508590000001136905620965851278_);fill:#EFA6A7;}
	.st23{clip-path:url(#SVGID_00000054982352848645508590000001136905620965851278_);}
	.st24{fill:url(#SVGID_00000115480250210393481390000013462070026191816585_);}
	.st25{fill:url(#SVGID_00000080165534316182505380000014929862555543084692_);}
	.st26{fill:url(#SVGID_00000005250977664059261920000002057901588817563267_);}
	.st27{fill:#79C474;}
	.st28{fill:#E4728D;}
	.st29{fill:#FFCD5B;}
	.st30{fill:#EEA6A6;}
	.st31{fill:#79C374;}
	.st32{fill:#80C06F;}
	.st33{fill:#2B8240;}
	.st34{fill:#935F5B;}
	.st35{fill:#216734;}
	.st36{opacity:0.4;fill:#2B8240;}
	.st37{fill:#705295;}
</style>
<g>
	<g>
		<path class="st29" d="M64.34,37H5.4c0-16.24,13.22-29.46,29.47-29.46c9.26,0,17.53,4.29,22.93,10.99
			c0.24,0.28,0.46,0.57,0.69,0.87C62.16,24.31,64.34,30.41,64.34,37z"/>
		<path class="st8" d="M59.2,37H10.54c0-13.41,10.92-24.32,24.33-24.32c6,0,11.5,2.18,15.75,5.8c0.24,0.2,0.48,0.41,0.72,0.63
			C56.17,23.56,59.2,29.93,59.2,37z"/>
		<path class="st0" d="M54.06,37H15.68c0-10.58,8.61-19.19,19.19-19.19S54.06,26.42,54.06,37z"/>
		<path class="st27" d="M48.92,37h-28.1c0-7.76,6.29-14.05,14.05-14.05S48.92,29.24,48.92,37z"/>
	</g>
	<g>
		<path class="st1" d="M66.62,19.41c-1.19,0-1.81-0.5-2.35-0.95c-0.5-0.41-0.93-0.76-1.82-0.76c-0.89,0-1.32,0.35-1.82,0.76
			c-0.54,0.44-1.16,0.95-2.35,0.95c-1.19,0-1.81-0.5-2.35-0.95c-0.5-0.41-0.92-0.76-1.82-0.76c-0.89,0-1.32,0.35-1.81,0.76
			c-0.54,0.45-1.16,0.95-2.35,0.95c-1.19,0-1.81-0.5-2.35-0.95c-0.5-0.41-0.92-0.76-1.81-0.76v-0.85c1.19,0,1.81,0.5,2.35,0.95
			c0.5,0.41,0.92,0.76,1.81,0.76c0.89,0,1.32-0.35,1.81-0.76c0.54-0.45,1.16-0.95,2.35-0.95c1.19,0,1.81,0.5,2.35,0.95
			c0.5,0.41,0.92,0.76,1.82,0.76c0.89,0,1.32-0.35,1.82-0.76c0.54-0.44,1.16-0.95,2.35-0.95c1.19,0,1.81,0.5,2.35,0.95
			c0.5,0.41,0.93,0.76,1.82,0.76V19.41z"/>
	</g>
	<path class="st1" d="M5.4,10.82c-0.44,3.83-2.63,6.85-5.4,7.46c2.77,0.61,4.96,3.63,5.4,7.45c0.45-3.82,2.64-6.84,5.41-7.45
		C8.04,17.67,5.85,14.65,5.4,10.82z"/>
	<polygon class="st29" points="6.55,0.37 4.54,3.88 8.56,3.88 	"/>
	<polygon class="st0" points="13.17,9.85 11.16,13.36 15.17,13.36 	"/>
	<polygon class="st0" points="40.71,0 38.7,3.51 42.71,3.51 	"/>
</g>
</svg>
