<?xml version="1.0" encoding="utf-8"?>
<!-- Generator: Adobe Illustrator 26.2.1, SVG Export Plug-In . SVG Version: 6.00 Build 0)  -->
<svg version="1.1" id="Layer_1" xmlns="http://www.w3.org/2000/svg" xmlns:xlink="http://www.w3.org/1999/xlink" x="0px" y="0px"
	 viewBox="0 0 107.48 82.38" style="enable-background:new 0 0 107.48 82.38;" xml:space="preserve">
<style type="text/css">
	.st0{fill:#F47D4D;}
</style>
<g>
	<path class="st0" d="M98.81,17.34H8.67C3.88,17.34,0,13.46,0,8.67v0C0,3.88,3.88,0,8.67,0h90.13c4.79,0,8.67,3.88,8.67,8.67v0
		C107.48,13.46,103.59,17.34,98.81,17.34z"/>
	<path class="st0" d="M98.81,82.38H8.67C3.88,82.38,0,78.49,0,73.7v0c0-4.79,3.88-8.67,8.67-8.67h90.13c4.79,0,8.67,3.88,8.67,8.67
		v0C107.48,78.49,103.59,82.38,98.81,82.38z"/>
	<path class="st0" d="M85.3,49.86H22.17c-4.79,0-8.67-3.88-8.67-8.67v0c0-4.79,3.88-8.67,8.67-8.67H85.3c4.79,0,8.67,3.88,8.67,8.67
		v0C93.97,45.98,90.09,49.86,85.3,49.86z"/>
</g>
</svg>
