<?xml version="1.0" encoding="utf-8"?>
<!-- Generator: Adobe Illustrator 26.2.1, SVG Export Plug-In . SVG Version: 6.00 Build 0)  -->
<svg version="1.1" id="Layer_1" xmlns="http://www.w3.org/2000/svg" xmlns:xlink="http://www.w3.org/1999/xlink" x="0px" y="0px"
	 viewBox="0 0 261.78 143.8" style="enable-background:new 0 0 261.78 143.8;" xml:space="preserve">
<style type="text/css">
	.st0{fill:#EFA6A7;}
	.st1{fill:#FFFFFF;}
	.st2{fill:#89C17A;}
	.st3{clip-path:url(#SVGID_00000054267529839411565820000011864890061238039225_);fill:#89C17A;}
	.st4{clip-path:url(#SVGID_00000054267529839411565820000011864890061238039225_);}
	.st5{fill:#E1DF84;}
	.st6{opacity:0.5;clip-path:url(#SVGID_00000054267529839411565820000011864890061238039225_);}
	.st7{opacity:0.5;fill:#89C17A;}
	.st8{fill:#F47D4D;}
	.st9{opacity:0.1;fill:#231F20;}
	.st10{fill:#231F20;}
	.st11{fill:#79A769;}
	.st12{fill:#F8C457;}
	.st13{fill:#F3C35C;}
	.st14{clip-path:url(#SVGID_00000073704476573502951900000011050374914263253181_);fill:#F8C457;}
	.st15{clip-path:url(#SVGID_00000073704476573502951900000011050374914263253181_);}
	.st16{fill:url(#SVGID_00000116193367518737086450000007337652935175279235_);}
	.st17{fill:url(#SVGID_00000160869290774581750660000008694169477337415068_);}
	.st18{fill:url(#SVGID_00000181064652317650670570000001315879445829911432_);}
	.st19{fill:#E09D30;}
	.st20{clip-path:url(#SVGID_00000079474803915071997690000005487858927086455469_);}
	.st21{fill:none;stroke:#231F20;stroke-width:0.4131;stroke-miterlimit:10;}
	.st22{clip-path:url(#SVGID_00000138537597523277634010000009340170841718414231_);fill:#EFA6A7;}
	.st23{clip-path:url(#SVGID_00000138537597523277634010000009340170841718414231_);}
	.st24{fill:url(#SVGID_00000013156091662244333990000001952087726139802795_);}
	.st25{fill:url(#SVGID_00000131366802801396598440000006774913200823340677_);}
	.st26{fill:url(#SVGID_00000047036952046120621880000008505866426840173977_);}
	.st27{fill:#79C474;}
	.st28{fill:#E4728D;}
	.st29{fill:#FFCD5B;}
	.st30{fill:#EEA6A6;}
	.st31{fill:#79C374;}
	.st32{fill:#80C06F;}
	.st33{fill:#2B8240;}
	.st34{fill:#935F5B;}
	.st35{fill:#216734;}
	.st36{opacity:0.4;fill:#2B8240;}
</style>
<path class="st8" d="M261.78,0h-56.83c-1.55,10.52,0.71,21.66,7.32,31.16l0.14,0.21c11.23,16.15,31.49,22.4,49.36,16.51V0z"/>
<path class="st30" d="M116.7,0c1.22,2.67,2.68,5.28,4.42,7.78l0.16,0.24c15.3,22,45.25,27.96,67.8,13.48L222.58,0H116.7z"/>
<path class="st8" d="M0,0v57.23c7.63,0.82,15.58-0.86,22.53-5.32L89.25,9.09c3.83-2.46,7.03-5.57,9.54-9.09H0z"/>
<g>
	<circle class="st29" cx="259.74" cy="96.12" r="20.42"/>
	<circle class="st8" cx="259.74" cy="96.12" r="16.86"/>
	<circle class="st0" cx="259.74" cy="96.12" r="13.3"/>
	<circle class="st27" cx="259.74" cy="96.12" r="9.74"/>
</g>
<path class="st1" d="M248.37,36.15c-0.52-4.46-3.07-7.97-6.3-8.69c3.23-0.71,5.78-4.23,6.3-8.69c0.52,4.46,3.07,7.97,6.3,8.69
	C251.44,28.18,248.89,31.7,248.37,36.15z"/>
<polygon class="st31" points="243.84,60.03 240.85,65.26 246.83,65.26 "/>
<path class="st1" d="M12.73,139.21c-0.78-6.7-4.61-11.99-9.47-13.06c4.85-1.07,8.69-6.36,9.47-13.06c0.78,6.7,4.61,11.99,9.47,13.06
	C17.34,127.22,13.51,132.51,12.73,139.21z"/>
<polygon class="st32" points="21.72,10.85 18.45,16.58 25,16.58 "/>
<polygon class="st32" points="194.73,4.56 191.45,10.29 198.01,10.29 "/>
<polygon class="st0" points="41.28,21.24 38.01,26.97 44.56,26.97 "/>
<polygon class="st0" points="233.52,9 230.24,14.73 236.79,14.73 "/>
<polygon class="st12" points="58.97,5.4 55.69,11.13 62.24,11.13 "/>
<polygon class="st12" points="177.45,9.82 174.17,15.55 180.73,15.55 "/>
<g>
	<g>
		<g>
			<path class="st2" d="M2.59,54.6c0.56,0.44,1.29,0.97,1.88,1.3c0.22,0.09,0.4-0.34,0.53-0.48c1.18-1.6,2.36-3.24,3.48-4.89
				c0.16-0.23,0.48-0.3,0.71-0.14c0.25,0.17,0.3,0.52,0.11,0.75c-1.01,1.24-2.01,2.49-2.97,3.77c-0.13,0.18-0.79,1.04-0.91,1.19
				c-0.2,0.35-0.7,0.65-1.13,0.52c-0.56-0.2-0.7-0.4-1.17-0.61c-0.45-0.36-1.6-0.45-1.33-1.23C1.93,54.49,2.34,54.39,2.59,54.6
				L2.59,54.6z"/>
		</g>
		<g>
			<path class="st2" d="M16.35,54.33l1.66,9.42l-0.45-0.31l2.3-0.55c0.69-0.16,0.89,0.91,0.18,1.01c0,0-2.35,0.3-2.35,0.3
				c-0.21,0.03-0.41-0.1-0.45-0.31c0,0-1.92-9.37-1.92-9.37C15.21,53.86,16.23,53.66,16.35,54.33L16.35,54.33z"/>
		</g>
		<g>
			<path class="st2" d="M9.52,42.56c-4.07-0.23-7.88,2.51-9.99,5.85c-0.41,0.56-1.25-0.09-0.81-0.63c1.32-1.67,2.87-3.26,4.68-4.41
				c1.89-1.14,3.96-1.88,6.23-1.84c0.28,0.01,0.5,0.25,0.49,0.53C10.11,42.39,9.82,42.61,9.52,42.56L9.52,42.56z"/>
		</g>
		<g>
			<path class="st2" d="M25.32,48.52c2.18,3.91,1.62,8.6-0.05,12.57c-0.1,0.26-0.4,0.39-0.67,0.29c-0.29-0.11-0.41-0.46-0.26-0.73
				c1.85-3.47,2.46-8.15,0.15-11.53C24.02,48.56,24.94,47.89,25.32,48.52L25.32,48.52z"/>
		</g>
		<g>
			<g>
				<g>
					<path class="st2" d="M34.08,44.87c-2.72,8.19-11.26,12.62-19.06,9.89c-7.8-2.73-12.17-11.68-9.45-19.87
						c2.72-8.19,11.51-12.53,19.31-9.8C32.69,27.82,36.8,36.68,34.08,44.87z"/>
					<path class="st33" d="M32.49,44.58c0.27-1,0.27-2.07,0.3-3.09c0.05-2.07,0.33-4.2-0.19-6.21c-0.04-0.16-0.09-0.31-0.14-0.47
						c0.02-0.03,0.03-0.07,0.03-0.11c0-0.4-0.05-0.75-0.28-1.06c-0.35-0.46-0.55-0.94-0.78-1.48c-0.25-0.57-0.68-0.9-1.11-1.21
						c-0.12-0.16-0.25-0.31-0.37-0.46c0.04-0.07,0.04-0.14-0.07-0.16c-0.04-0.01-0.07-0.01-0.1-0.01c-0.16-0.19-0.37-0.31-0.69-0.45
						c-0.28-0.11-0.59-0.22-0.9-0.31c0.38-0.02,0.75-0.18,1.14-0.19c0.11,0,0.22,0.01,0.33,0.03c0.44,0.17,0.87,0.36,1.17,0.7
						c0.06,0.07,0.15,0.06,0.22,0.02c0.25,0.25,0.44,0.58,0.73,0.81c0.09,0.07,0.29-0.1,0.19-0.2c-0.34-0.35-0.55-0.79-0.92-1.11
						c-0.13-0.11-0.28-0.19-0.43-0.27c-0.38-0.24-0.85-0.36-1.28-0.44c-0.33-0.14-0.63-0.31-0.99-0.4
						c-0.23-0.06-0.47-0.07-0.69-0.03c-0.09,0.01-0.19,0.03-0.28,0.06c0.18-0.17,0.37-0.34,0.55-0.52c0.18-0.18,0.51-0.41,0.56-0.68
						c0.04-0.24-0.29-0.19-0.37-0.03c-0.2,0.39-0.63,0.32-0.85,0.63c-0.09,0.14-0.15,0.28-0.2,0.43c-0.07,0.07-0.13,0.13-0.19,0.2
						c0.06-0.67,0.14-1.75,0.09-1.92c-0.11-0.33-0.43-0.89-0.81-0.81c-0.17-0.11-0.45,0.18-0.25,0.32c0.14,0.1,0.13,0.36,0.17,0.53
						c0.07,0.26,0.18,0.52,0.27,0.77c0.05,0.12,0.07,0.24,0.09,0.35c0,0.07,0,0.15,0.02,0.22c0,0.05,0,0.11-0.01,0.16
						c-0.03-0.06-0.06-0.13-0.11-0.19c-0.22-0.33-0.49-0.6-0.75-0.9c-0.23-0.27-0.38-0.62-0.59-0.91c-0.2-0.28-0.54-0.32-0.85-0.39
						c-0.77-0.18-1.42-0.63-2.2-0.8c-0.44-0.1-0.82-0.32-1.26-0.4c-0.43-0.07-0.93-0.05-1.36-0.01c-0.04,0-0.08,0.05-0.09,0.09
						c-0.18-0.02-0.36-0.03-0.55-0.04c0.12-0.02,0.25-0.03,0.38-0.05c0.21-0.01,0.41-0.01,0.62-0.03c0.07-0.01,0.11-0.12,0.02-0.12
						c-0.12,0.01-0.25,0-0.37,0c-0.22-0.03-0.45-0.03-0.68,0c-0.2,0-0.41-0.01-0.59,0.11c-0.07,0.02-0.14,0.03-0.2,0.05
						c-0.03,0.01-0.06,0.07-0.01,0.07c0.02,0,0.05,0,0.07,0c0,0.02,0.01,0.04,0.04,0.04c0.71-0.01,1.4,0.24,2.11,0.17
						c0.03,0,0.06-0.03,0.07-0.05c0.05,0,0.1,0.01,0.14,0.01c0.43,0.05,0.79,0.37,1.21,0.48c0.72,0.18,1.33,0.5,2.02,0.73
						c0.37,0.13,0.76,0.16,1.08,0.44c0.23,0.19,0.4,0.65,0.59,0.91c0.26,0.35,0.57,0.58,0.77,0.97c-0.15-0.06-0.31-0.11-0.44-0.17
						c-0.22-0.09-0.44-0.18-0.66-0.26c-0.14-0.23-0.33-0.37-0.55-0.49c-0.01-0.01-0.03-0.03-0.06-0.03c-0.1-0.06-0.2-0.11-0.31-0.17
						c-0.02-0.01-0.04-0.01-0.06-0.02c-0.27-0.19-0.48-0.47-0.8-0.6c-0.34-0.13-0.76,0.14-1.1,0.16c-0.54,0.03-1.15-0.27-1.68-0.35
						c-0.55-0.08-1.11-0.04-1.67-0.03c-1.08,0.03-2.06,0-3.14,0.26c-1,0.24-2.15,0.37-3.01,1.06c-0.38,0.3-0.7,0.67-1.04,1.01
						c-0.42,0.42-0.98,0.59-1.49,0.83C9.13,30,8.57,30.86,7.96,31.57c-0.72,0.83-1.06,2.01-1.58,2.98c-0.53,1-0.86,1.98-0.9,3.09
						c-0.53,1.65-0.41,3.47-0.37,5.19c0,0.14,0.23,0.07,0.23-0.06c0-1.44,0.1-2.85,0.58-4.22c0.2-0.56,0.31-1.14,0.45-1.7
						c0.02-0.06,0.05-0.12,0.08-0.18c0.28-0.7,0.86-0.85,1.38-1.24c0.68-0.52,0.71-1.39,1.03-2.14c0.43-1.01,1.55-1.46,2.35-2.1
						c0.46-0.36,0.75-0.93,1.32-1.11c0.43-0.14,0.9-0.04,1.33-0.17c0.35-0.1,0.65-0.32,0.92-0.58c0.15-0.14,0.28-0.3,0.42-0.45
						c0.54-0.59,0.95-0.32,1.48-0.25c0.98,0.13,1.94,0.32,2.93,0.37c0.38,0.02,0.75-0.03,1.12-0.15c0.46-0.15,0.63-0.37,1.15-0.31
						c0.39,0.05,0.77,0.01,1.15-0.06c0.58-0.1,1.1-0.06,1.68-0.02c0.02,0,0.03,0,0.05,0c0.1,0.05,0.2,0.09,0.28,0.11
						c0.03,0.01,0.07,0.02,0.12,0.03c0.03,0.01,0.07,0.02,0.1,0.04c0.24,0.1,0.7,0.25,1,0.45c-0.23,0-0.47,0.04-0.71,0.11
						c-0.07-0.02-0.17-0.04-0.28-0.05c-0.1-0.01-0.19,0.05-0.24,0.12c-1.22,0.06-2.41,0.45-3.63,0.68c-0.7,0.13-1.4,0.27-2.06,0.55
						c-0.62,0.26-1.17,0.69-1.76,1.02c-1.15,0.63-2.31,0-3.44,0.46c-1.34,0.55-1.85,2.25-2.89,3.21c-1.01,0.93-2.18,1.37-2.87,2.66
						c-0.43,0.8-0.59,1.73-0.96,2.56c-0.26,0.59-0.4,1.11-0.34,1.75c0.07,0.75,0.44,1.42,0.54,2.16c0.1,0.78-0.27,1.62-0.32,2.41
						c-0.07,1.26,0.75,2.34,1.44,3.26c0.11,0.51,0.39,1.03,0.79,1.26c0.1,0.06,0.25-0.06,0.22-0.18c-0.09-0.34-0.32-0.56-0.37-0.92
						C9.33,50.08,9.33,50,9.33,49.93c0.65-1.1,0.49-2.06,0.36-3.31c-0.07-0.66,0.6-1.02,0.85-1.58c0.21-0.47,0.12-1.06,0.1-1.55
						c-0.04-0.97,0.2-1.91,0.77-2.69c0.4-0.56,1.06-0.87,1.52-1.38c0.41-0.46,0.7-1.04,0.99-1.58c0.43-0.82,0.94-1.51,1.6-2.13
						c0.56-0.53,1.23-0.67,1.91-0.94c0.63-0.25,1.11-0.83,1.74-1.03c0.49-0.16,0.99-0.18,1.48-0.4c0.45-0.2,0.77-0.66,1.07-1.04
						c0.52-0.66,1.37-0.59,2.06-0.86c0.52-0.2,0.98-0.66,1.38-1.04c0.23-0.22,0.49-0.48,0.59-0.72c0.07-0.02,0.15-0.03,0.22-0.04
						c-0.23,0.27-0.38,0.64-0.48,0.97c-0.23,0.71-0.39,1.29-0.88,1.88c-0.56,0.68-1.34,0.88-2.1,1.16c-1.09,0.4-1.47,1.2-1.83,2.32
						c-0.26,0.83-0.87,1.18-1.29,1.88c-0.37,0.62-0.61,1.22-0.73,1.94c-0.08,0.46-1.45,0.85-1.8,1.09c-0.51,0.34-0.8,0.72-0.96,1.33
						c-0.11,0.43-0.12,0.83-0.28,1.26c-0.16,0.42-0.42,0.8-0.59,1.22c-0.27,0.66-0.09,1.23,0.05,1.87c0.24,1.07-0.31,1.58-1.01,2.24
						c-0.14,0.13-0.21,0.34-0.29,0.5c-0.3,0.59-0.67,0.42-1.12,0.54c-0.64,0.16-1.1,0.92-0.93,1.59c-0.1,0.16-0.08,0.35-0.06,0.55
						c0.01,0.18-0.11,0.32-0.11,0.5c0,0.12,0.06,0.21,0.1,0.31c-0.01,0.05,0,0.09,0.02,0.11c0,0.02,0.01,0.04,0,0.07
						c-0.03,0.14,0.16,0.15,0.24,0.07c0,0,0,0.01,0.01,0.01c0.02,0.02,0.04,0.02,0.06,0.01c0.01,0.01,0.02,0.02,0.03,0.03
						c0.43,0.31,0.69,0.69,1.27,0.55c0,0,0,0,0,0c0.04,0.01,0.07,0.02,0.11,0.03c0.19,0.2,0.55,0.31,0.84,0.38c0,0,0,0,0,0
						l-0.02,0.05c-0.01,0.02-0.01,0.05,0.02,0.06c0.85,0.44,1.77,0.57,2.67,0.85c0.97,0.31,1.96-0.02,2.96,0.08
						c0.87,0.09,1.67-0.23,2.53-0.37c0.46-0.08,0.91-0.23,1.34-0.42c0.09,0.1,0.28,0.11,0.6-0.04c0.52-0.23,1.03-0.62,1.5-0.96
						c0.79-0.57,1.65-1,2.46-1.54c0.6-0.4,1.24-0.85,1.61-1.52c0.5-0.9,0.73-1.91,1.25-2.81C31.68,46.47,32.2,45.64,32.49,44.58z
						 M13.76,52.99c-0.06-0.1-0.27-0.1-0.35,0.02c-0.03,0.03-0.04,0.06-0.06,0.09c-0.11,0-0.23-0.02-0.34-0.05
						c-0.08-0.02-0.17,0.06-0.18,0.13c-0.02-0.01-0.05-0.02-0.07-0.03c-0.21-0.12-0.4-0.22-0.63-0.28c-0.01,0-0.02,0-0.04,0
						c0.02-0.03,0.03-0.06,0.03-0.09c0-0.06,0-0.12,0.02-0.17c0.09-0.12,0.22-0.23,0.34-0.32c0.25-0.12,0.5-0.37,0.64-0.43
						c1.21-0.58,2.42-0.37,3.29-1.63c0.41-0.6,0.94-1.18,1.31-1.81c0.41-0.71,0.32-1.28,0.16-2.05c-0.22-1.11,1.3-1.33,1.9-1.75
						c0.75-0.53,1.09-1.37,1.63-2.1c0.46-0.63,0.94-1.21,1.28-1.93c0.17-0.35,0.21-0.73,0.28-1.1c0.12-0.7,0.29-1.09,0.82-1.59
						c0.43-0.4,0.88-0.84,1.06-1.44c0.19-0.67,0.48-1.06,1.01-1.46c0.24-0.19,0.45-0.37,0.6-0.65c0.3-0.55,0.6-1.23,0.63-1.87
						c0.03-0.55-0.03-1.08,0.23-1.59c0.1-0.2,0.15-0.35,0.16-0.53c0.12,0.2,0.22,0.4,0.33,0.6c0.01,0.1,0.02,0.21,0.04,0.31
						c0.04,0.21,0.12,0.37,0.17,0.55c-0.04,0.27-0.05,0.54-0.06,0.81c-0.01,0.07-0.02,0.15-0.02,0.23c0,0.07,0.01,0.14,0.03,0.21
						c0.02,0.63,0.1,1.26,0.19,1.94c0.19,1.54-1.07,2.22-1.5,3.55c-0.21,0.64-0.32,1.31-0.48,1.97c-0.17,0.72-0.47,1.4-0.7,2.1
						c-0.2,0.59-0.3,1.22-0.42,1.84c-0.16,0.9-0.71,1.39-1.35,1.95c-0.33,0.29-0.59,0.62-0.81,1c-0.32,0.57-0.26,1.3-0.52,1.89
						c-0.24,0.55-1.01,0.9-1.42,1.32c-0.2,0.21-0.36,0.59-0.5,0.84c-0.44,0.79-0.83,0.71-1.49,0.79c-0.51,0.06-1.02,0.22-1.52,0.36
						c-0.33,0.1-0.65,0.23-0.99,0.27c-0.24,0.03-0.6-0.08-0.85-0.08c-0.44-0.01-0.87,0.21-1.32,0.2
						C14.07,53.02,13.91,52.97,13.76,52.99z M28.04,48.9c-0.52,0.8-1.38,1.27-2.01,1.96c-0.18,0.19-0.21,0.49-0.39,0.68
						c-0.17,0.18-0.33,0.36-0.49,0.54c-0.4,0.45-0.81,0.88-1.19,1.36c-0.1,0.12-0.17,0.25-0.22,0.37c-0.35,0.18-0.71,0.36-1.1,0.48
						c-0.97,0.3-1.95,0.57-2.95,0.48c-0.91-0.08-1.8,0.26-2.69-0.04c-0.18-0.06-1.61-0.37-2.31-0.56c0.17,0.03,0.33,0.05,0.5,0.06
						c0.22,0.04,0.45,0.08,0.67,0.14c0.95,0.22,1.54,0.27,2.49-0.04c1.54-0.5,3.08-0.36,4.49-1.3c1.48-0.98,2.5-2.21,3.14-3.92
						c0.63-1.67,1.99-3.23,2.07-5.07c0.04-1.04,0.16-2,0.44-3c0.29-1.04,0.81-1.97,1.1-3.01c0.44-1.6,0.07-3.23-0.29-4.78
						c-0.06-0.24-0.07-0.6-0.12-0.97c0.09-0.03,0.17-0.12,0.12-0.22c-0.14-0.31-0.21-0.65-0.36-0.95c-0.17-0.35-0.57-0.53-0.8-0.84
						c0.02,0.01,0.04,0.02,0.07,0.03c0.48,0.23,0.81,0.7,1.12,1.16c0.05,0.28,0.14,0.54,0.23,0.68c0.55,0.82,0.89,1.44,0.94,2.49
						c0.04,0.85-0.13,1.69,0.01,2.53c0.17,1.01,0.25,1.89,0.07,2.93c-0.08,0.45-0.17,0.89-0.29,1.33c-0.12,0.46-0.43,0.75-0.66,1.15
						c-0.33,0.57-0.38,1.17-0.3,1.81c0.11,0.82-0.65,1.35-0.38,2.15C28.69,47.34,28.52,48.17,28.04,48.9z"/>
				</g>
				<g>
					<g>
						<path class="st34" d="M39.66,27.5c-0.17-0.56-0.71-0.84-1.17-1.14c-0.61-0.38-1.26-0.73-1.97-0.85
							c-1.16-0.2-2.44,0.29-3.08,1.31c-0.55,0.88-0.34,2.46,0.96,2.48c1.09,0.01,1.67-1.24,1.28-2.15
							c-0.85-1.95-4.89-2.56-5.08,0.13c-0.06,0.89,0.66,2.34,1.74,1.73c1.03-0.58,0.77-2,0.01-2.68c-1.03-0.9-2.69-0.9-3.83-0.22
							c-1.21,0.72-1.73,2.09-1.53,3.44c0.07,0.5,0.83,0.29,0.75-0.21c-0.28-1.93,1.63-3.44,3.45-2.79c0.43,0.15,0.89,0.46,1.02,0.92
							c0.12,0.44-0.21,1.18-0.64,0.64c-0.62-0.77,0.09-1.78,0.92-1.88c0.82-0.1,1.89,0.29,2.35,1.01c0.22,0.35,0.28,0.81-0.07,1.1
							c-0.68,0.58-1.01-0.46-0.76-0.97c0.38-0.79,1.35-1.2,2.19-1.12c0.54,0.05,1.06,0.29,1.53,0.56c0.34,0.2,1.06,0.5,1.17,0.89
							C39.05,28.19,39.81,27.98,39.66,27.5L39.66,27.5z"/>
					</g>
				</g>
			</g>
		</g>
		<g>
			<g>
				<ellipse transform="matrix(0.5036 -0.864 0.864 0.5036 -24.9889 36.5746)" cx="19.33" cy="40.03" rx="1.19" ry="0.83"/>
			</g>
			<g>
				<ellipse transform="matrix(0.5036 -0.864 0.864 0.5036 -19.3755 34.2954)" cx="20.15" cy="34.01" rx="1.56" ry="1.04"/>
				
					<ellipse transform="matrix(0.5036 -0.864 0.864 0.5036 -19.0247 33.9719)" class="st1" cx="20.05" cy="33.54" rx="0.51" ry="0.37"/>
			</g>
			<g>
				<ellipse transform="matrix(0.5036 -0.864 0.864 0.5036 -19.4048 39.0528)" cx="24.28" cy="36.41" rx="1.56" ry="1.04"/>
				
					<ellipse transform="matrix(0.5036 -0.864 0.864 0.5036 -19.0541 38.7293)" class="st1" cx="24.17" cy="35.94" rx="0.51" ry="0.37"/>
			</g>
		</g>
		<path class="st35" d="M17.35,40.84c0.23,0.46,0.81,1.29,2.12,1.32c0.11,0,0.15,0.15,0.05,0.21c-0.74,0.43-2.42,1.12-2.32-1.49
			C17.21,40.8,17.32,40.77,17.35,40.84z"/>
	</g>
	<path class="st36" d="M33.68,45.93c-3.91,5.58-11.38,8.05-18.45,5.58c-4.87-1.7-8.58-5.42-10.37-9.81
		c0.66,5.85,4.51,11.08,10.16,13.06C22.48,57.37,30.6,53.44,33.68,45.93z"/>
	<g>
		<path class="st35" d="M19.94,30.52c1.18-1.24,3.58-0.7,3.19,1.25c-0.2-0.31-0.39-0.59-0.59-0.78
			C21.83,30.34,20.86,30.55,19.94,30.52L19.94,30.52z"/>
		<path class="st35" d="M27.52,34.84c-0.42-0.75-0.63-1.65-1.51-1.89c-0.26-0.07-0.57-0.08-0.93-0.11
			C26.52,31.51,28.15,33.25,27.52,34.84L27.52,34.84z"/>
	</g>
</g>
<path class="st1" d="M37.84,49.54c-2.9-1.88-6.41-1.77-9.1-0.15c-1.26,0.76-2.88,0.58-3.9-0.48c-0.86-0.9-1.89-1.67-3.05-2.27
	c-2.49-1.28-5.23-1.57-7.77-1.01c-1.19,0.26-2.41-0.14-3.19-1.07c-1.16-1.39-2.6-2.56-4.3-3.43c-7.24-3.71-16.32-0.45-20.29,7.29
	c-1.38,2.68-3.21,0.54-5.88,0.66c-3.29,0.15-6.31,2.09-7.81,5.02c-2.33,4.54-0.54,10.12,4.01,12.45c3,1.54,6.04,1.17,8.75-0.29
	c1.19-0.65,2.66-0.39,3.64,0.55c0.95,0.91,1.96,1.72,3.21,2.36c3.67,1.88,8.03,1.98,11.85,0.47c1.44-0.57,4-3.25,5.3-3.34
	c1.07-0.07,2.5,1.32,3.47,1.7c2.59,1.01,5.57,0.84,8.13-0.21c0.46-0.19,2.95-1.76,4.57-3.2c0.99-0.88,2.42-1.01,3.58-0.38
	c4.37,2.36,10.41,0.54,12.23-4.69C42.54,55.83,41.11,51.65,37.84,49.54z"/>
<g>
	<path class="st1" d="M261.73,74.78c-1.91,0-2.89-0.81-3.76-1.52c-0.79-0.65-1.48-1.21-2.9-1.21c-1.42,0-2.11,0.56-2.9,1.21
		c-0.87,0.71-1.85,1.52-3.76,1.52c-1.91,0-2.89-0.81-3.76-1.52c-0.79-0.65-1.48-1.21-2.9-1.21c-1.42,0-2.11,0.56-2.9,1.21
		c-0.87,0.71-1.85,1.52-3.76,1.52c-1.91,0-2.89-0.81-3.76-1.52c-0.79-0.65-1.48-1.21-2.9-1.21v-1.35c1.91,0,2.89,0.81,3.76,1.52
		c0.79,0.65,1.48,1.21,2.9,1.21c1.42,0,2.11-0.56,2.9-1.21c0.87-0.71,1.85-1.52,3.76-1.52c1.91,0,2.89,0.81,3.76,1.52
		c0.79,0.65,1.48,1.21,2.9,1.21c1.42,0,2.11-0.56,2.9-1.21c0.87-0.71,1.85-1.52,3.76-1.52c1.91,0,2.89,0.81,3.76,1.52
		c0.79,0.65,1.48,1.21,2.9,1.21V74.78z"/>
</g>
</svg>
