<?xml version="1.0" encoding="utf-8"?>
<!-- Generator: Adobe Illustrator 26.2.1, SVG Export Plug-In . SVG Version: 6.00 Build 0)  -->
<svg version="1.1" id="Layer_1" xmlns="http://www.w3.org/2000/svg" xmlns:xlink="http://www.w3.org/1999/xlink" x="0px" y="0px"
	 viewBox="0 0 83.39 83.39" style="enable-background:new 0 0 83.39 83.39;" xml:space="preserve">
<style type="text/css">
	.st0{fill:#FFFFFF;}
</style>
<g>
	<path class="st0" d="M41.9,33.98c-4.25,0-7.71,3.46-7.71,7.71s3.46,7.71,7.71,7.71c4.25,0,7.71-3.46,7.71-7.71
		S46.15,33.98,41.9,33.98z"/>
	<path class="st0" d="M51.45,21.85H31.94c-5.56,0-10.09,4.52-10.09,10.08v19.52c0,5.56,4.52,10.09,10.09,10.09h19.52
		c5.56,0,10.09-4.52,10.09-10.09V31.94C61.54,26.37,57.01,21.85,51.45,21.85z M41.9,53.73c-6.64,0-12.04-5.4-12.04-12.04
		c0-6.64,5.4-12.04,12.04-12.04c6.64,0,12.04,5.4,12.04,12.04C53.94,48.33,48.53,53.73,41.9,53.73z M54.64,31.71
		c-1.58,0-2.87-1.28-2.87-2.87c0-1.58,1.28-2.87,2.87-2.87c1.58,0,2.87,1.28,2.87,2.87C57.5,30.43,56.22,31.71,54.64,31.71z"/>
	<path class="st0" d="M61.58,0L21.81,0C9.82,0,0,9.82,0,21.81v39.76c0,12,9.82,21.81,21.81,21.81l39.76,0
		c12,0,21.81-9.82,21.81-21.81V21.81C83.39,9.82,73.57,0,61.58,0z M66.14,51.45c0,8.1-6.59,14.68-14.69,14.68H31.94
		c-8.1,0-14.68-6.59-14.68-14.68V31.94c0-8.1,6.59-14.68,14.68-14.68h19.52c8.1,0,14.69,6.59,14.69,14.68V51.45z"/>
</g>
</svg>
