<?xml version="1.0" encoding="utf-8"?>
<!-- Generator: Adobe Illustrator 26.2.1, SVG Export Plug-In . SVG Version: 6.00 Build 0)  -->
<svg version="1.1" id="Layer_1" xmlns="http://www.w3.org/2000/svg" xmlns:xlink="http://www.w3.org/1999/xlink" x="0px" y="0px"
	 viewBox="0 0 230.93 127.42" style="enable-background:new 0 0 230.93 127.42;" xml:space="preserve">
<style type="text/css">
	.st0{fill:#705295;}
	.st1{fill:#EEA6A6;}
	.st2{fill:#FFFFFF;}
</style>
<g>
	<path class="st0" d="M226.49,102.63c2.23-3.88,3.44-8.47,3.44-13.4c0-3.62-0.77-6.61-2.09-9.04c0.12-0.62,0.18-1.26,0.18-1.9V64.41
		c0-4.68-3.29-8.71-7.88-9.64c-0.66-0.13-1.28-0.23-1.92-0.35c2.52-1.32,4.25-3.95,4.25-7c0-3.2-1.9-5.94-4.64-7.18
		c2.05-1.56,3.41-3.87,3.77-6.44l1.74-12.34c0.69-4.9-2.37-9.55-7.13-10.86c-3.99-1.1-8.39-1.42-12.52-0.49
		c-1.59-1.03-3.45-1.59-5.37-1.59h-14.58c-0.47,0-0.93,0.04-1.38,0.11c-0.46-0.06-0.92-0.11-1.39-0.11h-14.58
		c-1.22,0-2.38,0.22-3.46,0.62c-3.18-1.39-6.42-1.79-8.91-1.83c-1.71-0.03-3.35,0.15-4.93,0.49c-0.37-1.75-1.21-3.39-2.46-4.71
		C144.76,1.11,142.18,0,139.47,0h-14.58c-2.72,0-5.31,1.12-7.17,3.1c-1.04,1.11-1.8,2.43-2.23,3.85c-5.35,0.49-9.43,1.93-12.5,3.65
		c-2.16-1.1-4.66-1.37-7.02-0.74c-3.42,0.92-7.33,1.42-11.61,1.5c-0.73,0.01-1.44,0.11-2.13,0.27c-0.68-0.18-1.39-0.29-2.12-0.33
		c-5.12-0.23-9.53-0.95-12.33-1.52c-0.8-0.16-1.61-0.21-2.41-0.18c-0.8-0.41-1.65-0.73-2.57-0.91c-18.43-3.75-28.92,0.88-34.47,5.41
		c-5.12,4.18-8.06,10.09-8.06,16.21c0,2.82,0.4,5.39,1.2,7.69c-0.44,1.13-0.68,2.35-0.68,3.6v5.34l-9.78-1.17
		c-2.81-0.34-5.62,0.55-7.73,2.44C1.18,50.1-0.02,52.79,0,55.62l0.34,46.61c0,0.05,0.01,0.1,0.01,0.15v16.89
		c0,4.51,3.65,8.16,8.16,8.16h214.26c4.51,0,8.16-3.65,8.16-8.16v-9.37C230.93,106.72,229.13,103.99,226.49,102.63z"/>
	<path class="st1" d="M224.64,81.51c0.28-0.76,0.43-1.57,0.43-2.4V65.22c0-3.28-2.31-6.1-5.52-6.75c-5.39-1.09-10.43-1.47-15-1.16
		c0.2-0.63,0.31-1.3,0.31-1.97L205,39.63c0.36-0.18,0.66-0.26,0.89-0.27c1.56-0.06,3.51,0.36,4.1,0.52
		c1.91,0.54,3.97,0.23,5.63-0.86s2.78-2.84,3.06-4.81l1.74-12.34c0.48-3.43-1.66-6.68-4.99-7.6c-4.62-1.27-8.83-1.29-12.42-0.14
		c-1.27-1.18-2.94-1.84-4.69-1.84h-14.58c-0.47,0-0.93,0.05-1.38,0.14c-0.45-0.09-0.92-0.14-1.39-0.14h-14.58
		c-1.26,0-2.45,0.34-3.47,0.94c-2.9-1.57-6.09-2.1-8.94-2.14c-2.82-0.04-5.47,0.52-7.85,1.61c0.13-0.59,0.2-1.14,0.23-1.64
		c0.11-1.89-0.57-3.74-1.87-5.12c-1.3-1.38-3.11-2.15-5-2.15h-14.58c-1.9,0-3.72,0.79-5.02,2.17c-1.18,1.26-1.84,2.91-1.87,4.62
		c-7.03,0.24-11.84,2.17-15.07,4.34c-0.22-0.19-0.45-0.36-0.7-0.52c-1.63-1.05-3.63-1.36-5.5-0.85c-3.65,0.98-7.8,1.52-12.33,1.6
		c-0.78,0.01-1.52,0.16-2.22,0.41c-0.69-0.27-1.43-0.43-2.21-0.47c-5.31-0.23-9.89-0.98-12.79-1.57c-0.84-0.17-1.68-0.17-2.51-0.03
		c-0.73-0.49-1.56-0.87-2.47-1.05c-13.5-2.74-24.86-1.03-32.01,4.81c-4.43,3.62-6.97,8.7-6.97,13.92c0,3.13,0.55,5.7,1.46,7.81
		c-0.6,1.04-0.94,2.23-0.94,3.47v8.66l-13.08-1.56c-1.97-0.24-3.94,0.39-5.41,1.7c-1.48,1.32-2.31,3.21-2.3,5.19l0.34,46.61
		c0.03,3.44,2.58,6.33,5.99,6.78l13.19,1.74c0.31,0.04,0.61,0.06,0.91,0.06c1.8,0,3.47-0.7,4.72-1.88c2.62,1.24,5.68,1.82,9.08,1.7
		c3.38-0.12,9.36-1.15,13.77-6.3c4.28,4.25,9.67,5.14,12.8,5.26c3.41,0.12,6.46-0.47,9.08-1.7c1.25,1.18,2.92,1.88,4.72,1.88
		c0.3,0,0.6-0.02,0.91-0.06l12.27-1.61c0.78,0.46,1.65,0.79,2.6,0.92l13.19,1.74c0.31,0.04,0.61,0.06,0.91,0.06
		c1.8,0,3.47-0.7,4.72-1.88c2.62,1.24,5.67,1.82,9.08,1.7c2.4-0.09,6.12-0.63,9.65-2.79c1.2,1.25,2.86,2.05,4.71,2.12l13.19,0.49
		c0.09,0,0.17,0,0.26,0c1.76,0,3.46-0.68,4.75-1.9c0.19-0.18,0.36-0.37,0.53-0.57c3.8,2.38,8.44,3.57,14,3.57
		c4.98,0,10.7-0.95,17.21-2.86c0,0,0.01,0,0.01,0c0.12,0.05,0.23,0.11,0.35,0.14c6.42,2.03,12.18,3.05,17.24,3.05
		c6.1,0,11.2-1.48,15.23-4.43c5.47-4.01,8.61-10.65,8.61-18.2C226.98,86.75,226.17,83.86,224.64,81.51z"/>
	<g>
		<path class="st2" d="M7.02,117.89H5v-1.19h5.49v1.19H8.48V123H7.02V117.89z"/>
		<path class="st2" d="M17.86,116.7v6.3H16.4v-2.58h-2.86V123h-1.46v-6.3h1.46v2.48h2.86v-2.48H17.86z"/>
		<path class="st2" d="M25.04,121.83V123h-4.88v-6.3h4.76v1.17h-3.31v1.37h2.92v1.13h-2.92v1.46H25.04z"/>
		<path class="st2" d="M35.82,118.99c0,1.4-1.05,2.28-2.74,2.28h-1.27V123h-1.46v-6.3h2.73C34.77,116.7,35.82,117.58,35.82,118.99z
			 M34.35,118.99c0-0.69-0.45-1.1-1.34-1.1h-1.19v2.19h1.19C33.9,120.08,34.35,119.67,34.35,118.99z"/>
		<path class="st2" d="M41.68,123l-1.22-1.76h-0.07h-1.27V123h-1.46v-6.3h2.73c1.68,0,2.74,0.87,2.74,2.29
			c0,0.94-0.48,1.64-1.3,1.99l1.41,2.02H41.68z M40.31,117.89h-1.19v2.2h1.19c0.89,0,1.34-0.41,1.34-1.1
			C41.65,118.3,41.2,117.89,40.31,117.89z"/>
		<path class="st2" d="M49.96,121.83V123h-4.88v-6.3h4.76v1.17h-3.31v1.37h2.92v1.13h-2.92v1.46H49.96z"/>
		<path class="st2" d="M57.66,123l-0.01-3.78l-1.85,3.11h-0.66l-1.84-3.03v3.7h-1.37v-6.3h1.21l2.36,3.91l2.32-3.91h1.2l0.02,6.3
			H57.66z"/>
		<path class="st2" d="M61.33,116.7h1.46v6.3h-1.46V116.7z"/>
		<path class="st2" d="M65.03,120.23v-3.53h1.46v3.47c0,1.2,0.52,1.69,1.4,1.69c0.89,0,1.4-0.49,1.4-1.69v-3.47h1.44v3.53
			c0,1.85-1.06,2.88-2.85,2.88C66.1,123.11,65.03,122.08,65.03,120.23z"/>
		<path class="st2" d="M78.72,123l-0.01-3.78l-1.85,3.11H76.2l-1.84-3.03v3.7h-1.37v-6.3h1.21l2.36,3.91l2.32-3.91h1.2l0.02,6.3
			H78.72z"/>
		<path class="st2" d="M84.85,122.19l0.81-0.97c0.34,0.46,0.72,0.69,1.17,0.69c0.59,0,0.89-0.35,0.89-1.04v-3H85.5v-1.17h3.66v4.09
			c0,1.56-0.78,2.32-2.27,2.32C86.05,123.11,85.31,122.79,84.85,122.19z"/>
		<path class="st2" d="M95.43,121.65H92.5L91.95,123h-1.49l2.81-6.3h1.44l2.82,6.3h-1.53L95.43,121.65z M94.97,120.55l-1-2.41
			l-1,2.41H94.97z"/>
		<path class="st2" d="M104.44,118.99c0,1.4-1.05,2.28-2.74,2.28h-1.27V123h-1.46v-6.3h2.73
			C103.39,116.7,104.44,117.58,104.44,118.99z M102.97,118.99c0-0.69-0.45-1.1-1.34-1.1h-1.19v2.19h1.19
			C102.52,120.08,102.97,119.67,102.97,118.99z"/>
		<path class="st2" d="M110.12,121.65h-2.92l-0.56,1.35h-1.49l2.81-6.3h1.44l2.82,6.3h-1.53L110.12,121.65z M109.66,120.55l-1-2.41
			l-1,2.41H109.66z"/>
		<path class="st2" d="M119.44,116.7v6.3h-1.2l-3.14-3.82V123h-1.44v-6.3h1.21l3.13,3.82v-3.82H119.44z"/>
		<path class="st2" d="M126.62,121.83V123h-4.88v-6.3h4.76v1.17h-3.31v1.37h2.92v1.13h-2.92v1.46H126.62z"/>
		<path class="st2" d="M128.09,122.38l0.5-1.1c0.53,0.39,1.32,0.66,2.08,0.66c0.86,0,1.22-0.29,1.22-0.68
			c0-1.18-3.66-0.37-3.66-2.71c0-1.07,0.86-1.96,2.65-1.96c0.79,0,1.6,0.19,2.19,0.56l-0.45,1.11c-0.58-0.33-1.19-0.49-1.75-0.49
			c-0.86,0-1.2,0.32-1.2,0.72c0,1.16,3.66,0.36,3.66,2.67c0,1.05-0.87,1.95-2.67,1.95C129.66,123.11,128.65,122.81,128.09,122.38z"
			/>
		<path class="st2" d="M140.01,121.83V123h-4.88v-6.3h4.76v1.17h-3.31v1.37h2.92v1.13h-2.92v1.46H140.01z"/>
		<path class="st2" d="M146.79,117.87v1.66h2.92v1.17h-2.92V123h-1.46v-6.3h4.76v1.17H146.79z"/>
		<path class="st2" d="M155.91,123l-1.22-1.76h-0.07h-1.27V123h-1.46v-6.3h2.73c1.68,0,2.74,0.87,2.74,2.29
			c0,0.94-0.48,1.64-1.3,1.99l1.41,2.02H155.91z M154.54,117.89h-1.19v2.2h1.19c0.89,0,1.34-0.41,1.34-1.1
			C155.88,118.3,155.43,117.89,154.54,117.89z"/>
		<path class="st2" d="M159.26,120.23v-3.53h1.46v3.47c0,1.2,0.52,1.69,1.4,1.69c0.89,0,1.4-0.49,1.4-1.69v-3.47h1.44v3.53
			c0,1.85-1.06,2.88-2.85,2.88C160.32,123.11,159.26,122.08,159.26,120.23z"/>
		<path class="st2" d="M167.21,116.7h1.46v6.3h-1.46V116.7z"/>
		<path class="st2" d="M172.28,117.89h-2.02v-1.19h5.49v1.19h-2.02V123h-1.46V117.89z"/>
		<path class="st2" d="M184.84,121.65h-2.92l-0.56,1.35h-1.49l2.81-6.3h1.44l2.82,6.3h-1.53L184.84,121.65z M184.38,120.55l-1-2.41
			l-1,2.41H184.38z"/>
		<path class="st2" d="M192.41,123l-1.22-1.76h-0.07h-1.27V123h-1.46v-6.3h2.73c1.68,0,2.74,0.87,2.74,2.29
			c0,0.94-0.48,1.64-1.3,1.99l1.41,2.02H192.41z M191.04,117.89h-1.19v2.2h1.19c0.89,0,1.34-0.41,1.34-1.1
			C192.38,118.3,191.93,117.89,191.04,117.89z"/>
		<path class="st2" d="M197.03,117.89h-2.02v-1.19h5.49v1.19h-2.02V123h-1.46V117.89z"/>
		<path class="st2" d="M202.09,116.7h1.46v6.3h-1.46V116.7z"/>
		<path class="st2" d="M205.36,122.38l0.5-1.1c0.53,0.39,1.32,0.66,2.08,0.66c0.86,0,1.22-0.29,1.22-0.68
			c0-1.18-3.66-0.37-3.66-2.71c0-1.07,0.86-1.96,2.65-1.96c0.79,0,1.6,0.19,2.19,0.56l-0.45,1.11c-0.58-0.33-1.19-0.49-1.75-0.49
			c-0.86,0-1.2,0.32-1.2,0.72c0,1.16,3.66,0.36,3.66,2.67c0,1.05-0.87,1.95-2.67,1.95C206.92,123.11,205.91,122.81,205.36,122.38z"
			/>
		<path class="st2" d="M216.55,121.65h-2.92l-0.56,1.35h-1.49l2.81-6.3h1.44l2.82,6.3h-1.53L216.55,121.65z M216.09,120.55l-1-2.41
			l-1,2.41H216.09z"/>
		<path class="st2" d="M225.87,116.7v6.3h-1.2l-3.14-3.82V123h-1.44v-6.3h1.21l3.13,3.82v-3.82H225.87z"/>
	</g>
	<path class="st2" d="M221.1,81.35c0.65-0.72,1.02-1.66,1.02-2.64V64.81c0-1.87-1.32-3.48-3.15-3.86
		c-12.61-2.56-23.11-1.07-29.56,4.2c-1.88,1.53-3.35,3.37-4.36,5.36c-3.28-5.11-8.94-9.36-17.05-9.08
		c-6.43,0.23-11.39,2.14-14.88,5.68c0.61-1.44,0.95-3.03,0.95-4.69c0-1.6-0.32-3.13-0.89-4.53c0.18,0.01,0.36,0.02,0.53,0.03
		c3.98,0.15,7.31-0.8,9.91-2.73c0.46,1.7,2.01,2.9,3.8,2.9c0.03,0,0.07,0,0.1,0l13.54-0.35c0.53-0.01,1.04-0.13,1.5-0.34
		c0.58,0.39,1.26,0.64,2.01,0.68l13.19,0.69c0.07,0,0.14,0.01,0.21,0.01c1,0,1.96-0.38,2.7-1.07c0.78-0.74,1.23-1.76,1.24-2.83
		l0.16-17.26c0.99-0.8,2.31-1.58,3.7-1.64c2.38-0.09,5.01,0.62,5.02,0.62c1.09,0.31,2.27,0.13,3.22-0.49
		c0.95-0.62,1.59-1.62,1.75-2.75l1.74-12.34c0.28-1.96-0.95-3.82-2.85-4.34c-4.95-1.36-9.25-1.11-12.65,0.62
		c-0.19-0.49-0.49-0.95-0.87-1.33c-0.74-0.75-1.75-1.17-2.8-1.17h-14.58c-0.48,0-0.95,0.1-1.39,0.27c-0.43-0.16-0.9-0.27-1.39-0.27
		h-14.58c-1.32,0-2.48,0.65-3.2,1.64c-2.12-1.62-5.08-2.78-9.26-2.85c-4.12-0.08-7.82,1.35-10.61,4.1
		c-0.85,0.83-1.57,1.75-2.21,2.73c-0.58-0.85-1.29-1.67-2.16-2.42c3.18-2.29,4.35-5.5,4.46-7.56c0.06-1.08-0.33-2.14-1.07-2.92
		c-0.74-0.79-1.78-1.23-2.86-1.23h-14.58c-1.09,0-2.12,0.45-2.87,1.24c-0.74,0.79-1.13,1.86-1.06,2.94c0.08,1.3-0.38,2.17-1.31,2.59
		c-0.04,0-0.09,0-0.13,0c-9.3,0-14.47,3.05-17.21,5.7c-0.25-0.95-0.83-1.79-1.66-2.32c-0.93-0.6-2.08-0.77-3.14-0.49
		c-3.89,1.04-8.27,1.62-13.04,1.7c-0.87,0.02-1.67,0.31-2.32,0.81c-0.63-0.51-1.43-0.83-2.3-0.87c-5.5-0.24-10.24-1.02-13.25-1.63
		c-0.9-0.18-1.83-0.03-2.63,0.4c-0.56-0.74-1.38-1.29-2.35-1.49C49,12.33,38.51,13.83,32.06,19.1c-3.74,3.06-5.89,7.3-5.89,11.64
		c0,3.49,0.81,6.14,2.05,8.17c-0.96,0.74-1.52,1.89-1.52,3.11v12.54c-0.54-0.42-1.2-0.7-1.92-0.78l-14.46-1.73
		c-1.12-0.13-2.25,0.22-3.09,0.97c-0.84,0.75-1.32,1.83-1.31,2.96l0.34,46.61c0.01,1.96,1.48,3.62,3.42,3.87l13.19,1.74
		c0.17,0.02,0.35,0.03,0.52,0.03c1.77,0,3.33-1.19,3.79-2.9c2.59,1.93,5.94,2.88,9.91,2.73c4.15-0.15,10.2-1.65,13.69-8.35
		c3.55,5.81,9.17,7.16,13.1,7.3c3.99,0.14,7.31-0.8,9.91-2.73c0.46,1.71,2.02,2.9,3.79,2.9c0.17,0,0.34-0.01,0.52-0.03l13.19-1.74
		c0.08-0.01,0.15-0.04,0.22-0.05c0.59,0.57,1.35,0.98,2.22,1.09l13.19,1.74c0.17,0.02,0.35,0.03,0.52,0.03
		c1.77,0,3.33-1.19,3.79-2.9c2.59,1.93,5.95,2.88,9.91,2.73c3.16-0.12,7.41-1.01,10.8-4.38c0.12,2.02,1.74,3.63,3.78,3.71
		l13.19,0.49c0.05,0,0.1,0,0.15,0c1.01,0,1.98-0.39,2.71-1.08c0.77-0.73,1.21-1.74,1.22-2.8l0.01-0.4c0.42,0.41,0.85,0.8,1.31,1.17
		c3.58,2.82,8.22,4.23,14.03,4.23c4.68,0,10.12-0.92,16.37-2.74c0.34-0.1,0.65-0.25,0.94-0.43c0.34,0.25,0.73,0.45,1.15,0.59
		c6.15,1.94,11.6,2.92,16.34,2.92c5.46,0,9.97-1.29,13.49-3.87c6.68-4.9,7.41-12.7,7.41-15.82
		C224.03,85.81,222.85,83.16,221.1,81.35z M73.33,65.55c-2.12-1.62-5.08-2.78-9.26-2.84c-4.1-0.03-7.82,1.35-10.61,4.1
		c-1.37,1.35-2.44,2.91-3.27,4.58c-0.74-1.28-1.63-2.48-2.71-3.54c-2.79-2.75-6.43-4.16-10.61-4.1h0c-3.75,0.06-6.53,1-8.58,2.37
		l-0.04-6.38C28.6,60,29,60.21,29.44,60.35c6.14,1.94,11.6,2.92,16.34,2.92c5.46,0,9.97-1.29,13.49-3.87
		c2.37-1.74,3.98-3.84,5.09-5.97c3.42,5.32,9.3,8.27,17.37,8.49c0.34,0.01,0.68,0.01,1.02,0.01c2.63,0,5.01-0.3,7.16-0.88l0.03,2.85
		h-13.4C75.21,63.91,74.05,64.55,73.33,65.55z"/>
	<g>
		<g>
			<path class="st0" d="M60.83,18.75v13.89c0,0-4.86-1.04-9.55-0.87c-4.51,0.17-7.69,1.62-6.77,3.65c0.87,1.91,4.17,0,7.99,0
				s10.24,0.52,10.24,8.16s-4.69,21.7-32.11,13.02V42.02c0,0,6.76,3.65,12.33,3.65c5.55,0,8.33-0.69,7.64-2.78
				c-0.69-2.08-5.55,0.35-10.76-1.04c-5.21-1.39-9.72-3.47-9.72-11.11S39.48,14.41,60.83,18.75z"/>
		</g>
		<g>
			<path class="st0" d="M84.53,21.61l-0.26,21.97c0,2.11-1.09,3.82-2.43,3.82s-2.43-1.71-2.43-3.82l0.26-22.03
				c-5.8-0.25-10.79-1.08-13.86-1.7c-1.29,7.44-0.99,15.39-0.99,19.92c0,10.16,4.34,17.88,17.01,18.23
				c14.41,0.39,17.53-8.24,17.53-18.4c0-4.52,0.41-12.42-0.85-19.81C93.88,21.02,89.07,21.53,84.53,21.61z"/>
		</g>
		<g>
			<path class="st0" d="M166.38,18.75v8.33h-1.66c-1.14-5.62-3.7-9.43-10.86-9.54c-8.91-0.14-12.65,8.33-12.65,18.39
				c0,10.06,3.23,17.71,12.65,18.05c6.25,0.23,9.46-2.71,10.92-7.12h1.6l1.04,7.29l13.54-0.35V18.75H166.38z M164.17,41.32
				c0,1.4-0.94,2.53-2.11,2.53c-1.16,0-2.11-1.13-2.11-2.53l0.3-6.67c0-1.4,0.94-2.53,2.11-2.53c1.16,0,2.11,1.13,2.11,2.53
				L164.17,41.32z"/>
		</g>
		<g>
			<path class="st0" d="M198.95,26.74h-0.71l0.08-7.99h-14.58l1.04,35.41l13.19,0.69l0.17-18.97c1.65-1.68,4.27-3.69,7.46-3.83
				c3.07-0.13,6.26,0.77,6.26,0.77l1.74-12.34C204.78,18.07,200.73,21.89,198.95,26.74z"/>
		</g>
		<g>
			<path class="st0" d="M136,44.97c-6.6-2.08-10.42,1.39-14.58,2.43c-4,1-9.27,1.36-8.46-4.76c2.1,0.44,4.52,0.7,7.31,0.75
				c15.93,0.28,19.38-5.9,19.38-13.18c0-5.68-1.41-10.32-10.12-12.25l0.22-1.12c9.37-0.35,9.72-6.6,9.72-6.6h-14.58
				c0.35,5.55-4.63,6.78-4.63,6.78c-13.24-0.25-18.81,6.03-18.81,13.31c0,4.83,2.11,8.89,7.62,11.15c-2.87,0.76-8.58,3.03-7.8,9.04
				c1.04,7.99,8.57,11.11,17.36,11.11c8.13,0,14.07-6.36,19.22-8.87c1.89-0.92,5.36-0.97,6.39-0.5
				C144.25,52.26,142.6,47.05,136,44.97z M118.47,26.07c0-1.63,1.09-2.95,2.43-2.95c1.34,0,2.43,1.32,2.43,2.95l-0.35,7.78
				c0,1.63-1.09,2.95-2.43,2.95c-1.34,0-2.43-1.32-2.43-2.95L118.47,26.07z"/>
		</g>
	</g>
	<g>
		<g>
			<path class="st0" d="M218.18,64.82V78.7c0,0-4.86-1.04-9.55-0.87c-4.51,0.17-7.69,1.62-6.77,3.65c0.87,1.91,4.17,0,7.99,0
				c3.82,0,10.24,0.52,10.24,8.16s-4.69,21.7-32.11,13.02V88.08c0,0,6.76,3.65,12.33,3.65c5.55,0,8.33-0.69,7.64-2.78
				c-0.69-2.08-5.55,0.35-10.76-1.04c-5.21-1.39-9.72-3.47-9.72-11.11S196.83,60.48,218.18,64.82z"/>
		</g>
		<g>
			<path class="st0" d="M76.53,67.84v8.33h-1.66c-1.14-5.62-3.7-9.43-10.86-9.54c-8.91-0.14-12.65,8.33-12.65,18.39
				c0,10.06,3.23,17.71,12.65,18.05c6.25,0.23,9.46-2.71,10.92-7.12h1.6l1.04,7.29l13.19-1.74l0.35-33.68H76.53z M74.32,90.41
				c0,1.4-0.94,2.53-2.11,2.53c-1.16,0-2.11-1.13-2.11-2.53l0.3-6.67c0-1.4,0.94-2.53,2.11-2.53c1.16,0,2.11,1.13,2.11,2.53
				L74.32,90.41z"/>
		</g>
		<g>
			<polygon class="st0" points="149.32,83.98 149.4,72.93 134.82,72.93 135.86,103.46 149.05,103.95 149.22,90.48 			"/>
		</g>
		<g>
			<path class="st0" d="M120.99,67.68c-7.16,0.11-9.72,3.92-10.86,9.54h-1.66l-0.11-14.54c-6.47-2.19-8.82-8.41-8.82-8.41
				s-2.52,3.19-5.72,4.37l0.42,43.92l13.19,1.74l1.04-7.29h1.6c1.46,4.41,4.67,7.35,10.92,7.12c9.42-0.34,12.65-7.99,12.65-18.05
				C133.64,76.01,129.9,67.54,120.99,67.68z M112.79,93.98c-1.16,0-2.11-1.13-2.11-2.53l-0.3-6.67c0-1.4,0.94-2.53,2.11-2.53
				s2.11,1.13,2.11,2.53l0.3,6.67C114.89,92.85,113.95,93.98,112.79,93.98z"/>
		</g>
		<g>
			<path class="st0" d="M36.94,67.68c-7.16,0.11-9.72,3.92-10.86,9.54h-1.66L24.3,57.68L9.84,55.96l0.34,46.61l13.19,1.74l1.04-7.29
				h1.6c1.46,4.41,4.67,7.35,10.92,7.12c9.42-0.34,12.65-7.99,12.65-18.05C49.59,76.01,45.85,67.54,36.94,67.68z M28.73,93.98
				c-1.16,0-2.11-1.13-2.11-2.53l-0.3-6.67c0-1.4,0.94-2.53,2.11-2.53c1.16,0,2.11,1.13,2.11,2.53l0.3,6.67
				C30.84,92.85,29.9,93.98,28.73,93.98z"/>
		</g>
		<g>
			<path class="st0" d="M164.02,86.33h19.58c0,0,1.37-6.18,0-9.96c-1.37-3.78-5.84-11.34-15.46-10.99
				c-9.62,0.34-16.49,4.81-17.18,18.55c-0.69,13.74,4.47,26.79,32.63,18.55l0.34-13.74c0,0-6.87,3.78-12.37,3.78
				C166.08,92.51,164.02,90.79,164.02,86.33z M167.45,79.12c3.78,0,3.78,3.44,3.78,3.44h-7.56
				C163.68,82.55,163.68,79.12,167.45,79.12z"/>
		</g>
		<g>
			<circle class="st0" cx="141.98" cy="62.43" r="8.15"/>
		</g>
	</g>
	<g>
		<path class="st2" d="M210.15,46.61h-1.41v-0.96h3.84v0.96h-1.41v4.11h-1.02V46.61z"/>
		<path class="st2" d="M217.13,50.72l-0.01-3.04l-1.3,2.5h-0.46l-1.29-2.44v2.97h-0.96v-5.06h0.84l1.65,3.15l1.62-3.15h0.84
			l0.01,5.06H217.13z"/>
	</g>
</g>
</svg>
