<?xml version="1.0" encoding="utf-8"?>
<!-- Generator: Adobe Illustrator 26.2.1, SVG Export Plug-In . SVG Version: 6.00 Build 0)  -->
<svg version="1.1" id="Layer_1" xmlns="http://www.w3.org/2000/svg" xmlns:xlink="http://www.w3.org/1999/xlink" x="0px" y="0px"
	 viewBox="0 0 83.39 83.39" style="enable-background:new 0 0 83.39 83.39;" xml:space="preserve">
<style type="text/css">
	.st0{fill:#FFFFFF;}
</style>
<path class="st0" d="M83.39,21.81C83.39,9.82,73.57,0,61.58,0H21.81C9.82,0,0,9.82,0,21.81v39.76c0,12,9.82,21.81,21.81,21.81
	l13.37,0V55.12H24.59V43.06h10.59v-9.19c0-10.45,6.22-16.22,15.75-16.22c4.56,0,9.33,0.81,9.33,0.81v10.26H55
	c-5.18,0-6.79,3.21-6.79,6.51v7.82h11.56l-1.85,12.05h-9.72v28.27h13.37c12,0,21.81-9.82,21.81-21.81L83.39,21.81z"/>
</svg>
