<?xml version="1.0" encoding="utf-8"?>
<!-- Generator: Adobe Illustrator 26.2.1, SVG Export Plug-In . SVG Version: 6.00 Build 0)  -->
<svg version="1.1" id="Layer_1" xmlns="http://www.w3.org/2000/svg" xmlns:xlink="http://www.w3.org/1999/xlink" x="0px" y="0px"
	 viewBox="0 0 91.68 99.06" style="enable-background:new 0 0 91.68 99.06;" xml:space="preserve">
<style type="text/css">
	.st0{fill:#EFA6A7;}
	.st1{fill:#FFFFFF;}
	.st2{fill:#89C17A;}
	.st3{clip-path:url(#SVGID_00000134966834940949486660000009045414878003183012_);fill:#89C17A;}
	.st4{clip-path:url(#SVGID_00000134966834940949486660000009045414878003183012_);}
	.st5{fill:#E1DF84;}
	.st6{opacity:0.5;clip-path:url(#SVGID_00000134966834940949486660000009045414878003183012_);}
	.st7{opacity:0.5;fill:#89C17A;}
	.st8{fill:#F47D4D;}
	.st9{opacity:0.1;fill:#231F20;}
	.st10{fill:#231F20;}
	.st11{fill:#79A769;}
	.st12{fill:#F8C457;}
	.st13{fill:#F3C35C;}
	.st14{clip-path:url(#SVGID_00000087408158355404098980000010617004713534049718_);fill:#F8C457;}
	.st15{clip-path:url(#SVGID_00000087408158355404098980000010617004713534049718_);}
	.st16{fill:url(#SVGID_00000168795788415376375230000005229342972719844764_);}
	.st17{fill:url(#SVGID_00000114060727627201976430000010778304279656170391_);}
	.st18{fill:url(#SVGID_00000150104974882616622550000002034683126062421633_);}
	.st19{fill:#E09D30;}
	.st20{clip-path:url(#SVGID_00000124161521224372317600000010390854573923132327_);}
	.st21{fill:none;stroke:#231F20;stroke-width:0.8541;stroke-miterlimit:10;}
	.st22{clip-path:url(#SVGID_00000057840052694483499210000017868503176256604580_);fill:#EFA6A7;}
	.st23{clip-path:url(#SVGID_00000057840052694483499210000017868503176256604580_);}
	.st24{fill:url(#SVGID_00000131360803104522933000000007974414308474327179_);}
	.st25{fill:url(#SVGID_00000111176133005899371760000017664776977915879300_);}
	.st26{fill:url(#SVGID_00000000183149614223526200000000211287418379533441_);}
	.st27{fill:#79C474;}
	.st28{fill:#E4728D;}
	.st29{fill:#FFCD5B;}
	.st30{fill:#EEA6A6;}
	.st31{fill:#79C374;}
	.st32{fill:#80C06F;}
	.st33{fill:#2B8240;}
	.st34{fill:#935F5B;}
	.st35{fill:#216734;}
	.st36{opacity:0.4;fill:#2B8240;}
	.st37{fill:#705295;}
</style>
<g>
	<g>
		<defs>
			
				<rect id="SVGID_00000096760628462704039200000010715013483856364164_" x="10.82" y="18.2" transform="matrix(-0.9222 0.3868 -0.3868 -0.9222 108.6951 84.5739)" width="70.04" height="70.04"/>
		</defs>
		<use xlink:href="#SVGID_00000096760628462704039200000010715013483856364164_"  style="overflow:visible;fill:#EFA6A7;"/>
		<clipPath id="SVGID_00000026884887484061235870000017611105258662551192_">
			<use xlink:href="#SVGID_00000096760628462704039200000010715013483856364164_"  style="overflow:visible;"/>
		</clipPath>
		<g style="clip-path:url(#SVGID_00000026884887484061235870000017611105258662551192_);">
			<polygon class="st1" points="152.91,72.22 161.58,68.59 64.75,7.31 56.09,10.95 			"/>
			<polygon class="st1" points="133.22,80.48 141.88,76.85 45.06,15.57 36.4,19.21 			"/>
			<polygon class="st1" points="113.53,88.74 122.19,85.11 25.37,23.83 16.71,27.47 			"/>
			<polygon class="st1" points="93.84,97 102.5,93.37 5.68,32.09 -2.98,35.73 			"/>
			<polygon class="st1" points="74.15,105.26 82.81,101.62 -14.01,40.35 -22.68,43.98 			"/>
			<polygon class="st1" points="54.46,113.52 63.12,109.88 -33.7,48.61 -42.37,52.24 			"/>
		</g>
	</g>
	<path class="st21" d="M52.32,23.23l-41.69-5.44c-4.5-0.7-8.03,3.79-6.28,7.99l0,0c1.24,2.97,4.65,4.38,7.62,3.14l40.5-16.86
		c2.97-1.24,4.38-4.65,3.14-7.62l-0.18-0.44c-1.71-4.11-7.2-4.86-9.96-1.36L19.99,36.69"/>
	<line class="st21" x1="58.64" y1="85.83" x2="32.01" y2="20.58"/>
</g>
</svg>
