<?xml version="1.0" encoding="utf-8"?>
<!-- Generator: Adobe Illustrator 26.2.1, SVG Export Plug-In . SVG Version: 6.00 Build 0)  -->
<svg version="1.1" id="Layer_1" xmlns="http://www.w3.org/2000/svg" xmlns:xlink="http://www.w3.org/1999/xlink" x="0px" y="0px"
	 viewBox="0 0 111.8 49.5" style="enable-background:new 0 0 111.8 49.5;" xml:space="preserve">
<style type="text/css">
	.st0{fill:#EFA6A7;}
	.st1{fill:#FFFFFF;}
	.st2{fill:#89C17A;}
	.st3{clip-path:url(#SVGID_00000168798978395273838330000004709375920295473027_);fill:#89C17A;}
	.st4{clip-path:url(#SVGID_00000168798978395273838330000004709375920295473027_);}
	.st5{fill:#E1DF84;}
	.st6{opacity:0.5;clip-path:url(#SVGID_00000168798978395273838330000004709375920295473027_);}
	.st7{opacity:0.5;fill:#89C17A;}
	.st8{fill:#F47D4D;}
	.st9{opacity:0.1;fill:#231F20;}
	.st10{fill:#231F20;}
	.st11{fill:#79A769;}
	.st12{fill:#F8C457;}
	.st13{fill:#F3C35C;}
	.st14{clip-path:url(#SVGID_00000144325747619287919130000011937674591237184896_);fill:#F8C457;}
	.st15{clip-path:url(#SVGID_00000144325747619287919130000011937674591237184896_);}
	.st16{fill:url(#SVGID_00000145057556824030375510000011069624043591234455_);}
	.st17{fill:url(#SVGID_00000173845994016050385640000018073624909736037515_);}
	.st18{fill:url(#SVGID_00000053508658144368598970000002557653437109507223_);}
	.st19{fill:#E09D30;}
	.st20{clip-path:url(#SVGID_00000093175349414925305930000014040960936629913787_);}
	.st21{fill:none;stroke:#231F20;stroke-width:0.8541;stroke-miterlimit:10;}
	.st22{clip-path:url(#SVGID_00000159442382998918467690000015474600990878800023_);fill:#EFA6A7;}
	.st23{clip-path:url(#SVGID_00000159442382998918467690000015474600990878800023_);}
	.st24{fill:url(#SVGID_00000108270031994208112270000012991499766345673364_);}
	.st25{fill:url(#SVGID_00000050632023545532379060000013133181356526675636_);}
	.st26{fill:url(#SVGID_00000071524407077296103850000010586498473194222769_);}
	.st27{fill:#79C474;}
	.st28{fill:#E4728D;}
	.st29{fill:#FFCD5B;}
	.st30{fill:#EEA6A6;}
	.st31{fill:#79C374;}
	.st32{fill:#80C06F;}
	.st33{fill:#2B8240;}
	.st34{fill:#935F5B;}
	.st35{fill:#216734;}
	.st36{opacity:0.4;fill:#2B8240;}
	.st37{fill:#705295;}
</style>
<path class="st1" d="M105.61,15.84c-4.62-2.99-10.21-2.82-14.49-0.24c-2.01,1.21-4.59,0.93-6.22-0.77c-1.38-1.43-3-2.65-4.87-3.61
	c-3.97-2.04-8.33-2.5-12.38-1.62c-1.89,0.41-3.83-0.22-5.08-1.71c-1.85-2.21-4.15-4.08-6.84-5.46C44.22-3.47,29.75,1.73,23.43,14.05
	c-2.19,4.27-5.12,0.86-9.37,1.06C8.83,15.35,4.02,18.44,1.63,23.1c-3.71,7.24-0.85,16.11,6.38,19.82c4.78,2.45,9.61,1.87,13.93-0.47
	c1.9-1.03,4.24-0.62,5.8,0.87c1.51,1.45,3.13,2.73,5.11,3.75c5.85,3,12.78,3.15,18.86,0.74c2.3-0.91,6.38-5.17,8.43-5.31
	c1.7-0.12,3.99,2.11,5.52,2.7c4.13,1.61,8.87,1.33,12.94-0.33c0.74-0.3,4.69-2.81,7.28-5.09c1.58-1.39,3.85-1.61,5.7-0.61
	c6.96,3.76,16.58,0.86,19.47-7.46C113.09,25.86,110.81,19.2,105.61,15.84z"/>
</svg>
